<?xml version="1.0" standalone="no"?>
<!DOCTYPE svg PUBLIC "-//W3C//DTD SVG 20010904//EN"
 "http://www.w3.org/TR/2001/REC-SVG-20010904/DTD/svg10.dtd">
<svg version="1.0" xmlns="http://www.w3.org/2000/svg"
 width="384.000000pt" height="384.000000pt" viewBox="0 0 384.000000 384.000000"
 preserveAspectRatio="xMidYMid meet">
<metadata>
Created by potrace 1.11, written by Peter Selinger 2001-2013
</metadata>
<g transform="translate(0.000000,384.000000) scale(0.100000,-0.100000)"
fill="#000000" stroke="none">
<path d="M315 3821 c-122 -44 -225 -137 -280 -253 l-34 -71 0 -1574 c0 -1758
-7 -1599 72 -1718 44 -66 132 -140 212 -177 l50 -23 1575 -2 c1557 -2 1576 -2
1629 18 113 42 207 123 266 230 l30 54 0 1611 0 1611 -30 58 c-52 103 -149
188 -273 237 -41 16 -154 17 -1605 17 -1481 0 -1565 -1 -1612 -18z"/>
</g>
</svg>
